<?xml version="1.0" encoding="utf-8"?>
<!-- Generator: Adobe Illustrator 23.0.2, SVG Export Plug-In . SVG Version: 6.00 Build 0)  -->
<svg version="1.1" id="Layer_1" xmlns="http://www.w3.org/2000/svg" xmlns:xlink="http://www.w3.org/1999/xlink" x="0px" y="0px"
	 viewBox="0 0 60 60" style="enable-background:new 0 0 60 60;" xml:space="preserve">
<style type="text/css">
	.st0{fill:url(#SVGID_1_);}
	.st1{fill:#FFFFFF;}
</style>
<g>
	
		<image style="overflow:visible;" width="114" height="114" xlink:href="AEF469E20283EFEF.png"  transform="matrix(1 0 0 1 -27 -27.5)">
	</image>
</g>
<linearGradient id="SVGID_1_" gradientUnits="userSpaceOnUse" x1="6.63" y1="29.6049" x2="53.4522" y2="29.6049" gradientTransform="matrix(6.123234e-17 1 -1 6.123234e-17 59.646 -0.4362)">
	<stop  offset="0" style="stop-color:#FF0052"/>
	<stop  offset="1" style="stop-color:#C00048"/>
</linearGradient>
<circle class="st0" cx="30" cy="29.6" r="23.4"/>
<path class="st1" d="M22.9,39.2c-0.6,0-1.3-0.2-1.8-0.7c-1-1-1-2.6,0-3.5l14.2-14.2c1-1,2.6-1,3.5,0c1,1,1,2.6,0,3.5L24.7,38.5
	C24.2,39,23.6,39.2,22.9,39.2z"/>
<path class="st1" d="M37.2,39.2c-0.6,0-1.3-0.2-1.8-0.7L21.2,24.3c-1-1-1-2.6,0-3.5c1-1,2.6-1,3.5,0L39,35c1,1,1,2.6,0,3.5
	C38.5,39,37.8,39.2,37.2,39.2z"/>
</svg>
