<svg id="Layer_1" data-name="Layer 1" xmlns="http://www.w3.org/2000/svg" xmlns:xlink="http://www.w3.org/1999/xlink" viewBox="0 0 65.97 86"><defs><style>.cls-1{fill:url(#linear-gradient);}.cls-2{fill:url(#linear-gradient-2);}.cls-3{fill:url(#linear-gradient-3);}.cls-4{fill:url(#linear-gradient-4);}</style><linearGradient id="linear-gradient" x1="9.19" y1="43.22" x2="36.75" y2="43.22" gradientUnits="userSpaceOnUse"><stop offset="0" stop-color="#6b50cc"/><stop offset="1" stop-color="#2700b5"/></linearGradient><linearGradient id="linear-gradient-2" x1="19" y1="43.22" x2="26.94" y2="43.22" xlink:href="#linear-gradient"/><linearGradient id="linear-gradient-3" x1="0" y1="39.12" x2="52.44" y2="39.12" xlink:href="#linear-gradient"/><linearGradient id="linear-gradient-4" x1="19.5" y1="43" x2="65.97" y2="43" xlink:href="#linear-gradient"/></defs><title>dnm-logo-plus</title><rect class="cls-1" x="9.19" y="39.26" width="27.55" height="7.94"/><rect class="cls-2" x="19" y="29.45" width="7.94" height="27.55"/><path class="cls-3" d="M41.19,65.33a2.55,2.55,0,0,1-1.75-4.41l.36-.33.26-.23A24.81,24.81,0,1,0,5,25.27a3,3,0,0,0-.24.26c-.1.12-.21.25-.33.37A2.55,2.55,0,1,1,.69,22.4l.2-.22c.15-.18.31-.35.47-.52a29.94,29.94,0,0,1,42.31,0,29.9,29.9,0,0,1,0,42.31c-.17.17-.34.32-.52.48l-.22.19A2.54,2.54,0,0,1,41.19,65.33Z"/><path class="cls-4" d="M23,86H22a2.56,2.56,0,0,1,.05-5.11h.06l.86,0A37.89,37.89,0,0,0,23,5.11h-.86A2.56,2.56,0,0,1,22,0h1a43,43,0,0,1,0,86Z"/></svg>