<?xml version="1.0" encoding="utf-8"?>
<!-- Generator: Adobe Illustrator 23.0.2, SVG Export Plug-In . SVG Version: 6.00 Build 0)  -->
<svg version="1.1" id="Layer_1" xmlns="http://www.w3.org/2000/svg" xmlns:xlink="http://www.w3.org/1999/xlink" x="0px" y="0px"
	 viewBox="0 0 80 126" style="enable-background:new 0 0 80 126;" xml:space="preserve">
<style type="text/css">
	.st0{fill:#FFFFFF;}
	.st1{fill:url(#SVGID_1_);}
	.st2{fill:url(#SVGID_2_);}
	.st3{opacity:0.33;}
	.st4{fill:#C40048;}
	.st5{fill:url(#SVGID_3_);}
	.st6{fill:url(#SVGID_4_);}
	.st7{fill:url(#SVGID_5_);}
	.st8{fill:#FF0052;}
	.st9{fill:url(#SVGID_6_);}
	.st10{fill:#C00048;}
	.st11{fill:url(#SVGID_7_);}
	.st12{fill:#6B50CC;}
	.st13{fill:url(#SVGID_8_);}
	.st14{fill:url(#SVGID_9_);}
	.st15{fill:url(#SVGID_10_);}
	.st16{fill:url(#SVGID_11_);}
	.st17{fill:url(#SVGID_12_);}
	.st18{fill:url(#SVGID_13_);}
	.st19{fill:url(#SVGID_14_);}
	.st20{fill:url(#SVGID_15_);}
	.st21{fill:url(#SVGID_16_);}
	.st22{fill:url(#SVGID_17_);}
	.st23{fill:url(#SVGID_18_);}
	.st24{fill:url(#SVGID_19_);}
	.st25{fill:url(#SVGID_20_);}
	.st26{fill:url(#SVGID_21_);}
	.st27{fill:url(#SVGID_22_);}
	.st28{fill:url(#SVGID_23_);}
</style>
<path class="st0" d="M-60.7,35.5c8.8,0,16,7.2,16,16c0,8.8-7.2,16-16,16c-8.8,0-16-7.2-16-16C-76.8,42.7-69.6,35.5-60.7,35.5z"/>
<linearGradient id="SVGID_1_" gradientUnits="userSpaceOnUse" x1="-66.9139" y1="57.1321" x2="-54.1632" y2="69.8827">
	<stop  offset="0" style="stop-color:#006B8F"/>
	<stop  offset="1" style="stop-color:#14365A"/>
</linearGradient>
<path class="st1" d="M-60.5,72.5L-60.5,72.5c-5,0-9-4-9-9v0c0-5,4-9,9-9h0c5,0,9,4,9,9v0C-51.5,68.5-55.6,72.5-60.5,72.5z"/>
<linearGradient id="SVGID_2_" gradientUnits="userSpaceOnUse" x1="-65.0388" y1="42.301" x2="-56.0383" y2="51.3014">
	<stop  offset="0" style="stop-color:#006B8F"/>
	<stop  offset="1" style="stop-color:#14365A"/>
</linearGradient>
<circle class="st2" cx="-60.5" cy="46.8" r="6.4"/>
<g class="st3">
	
		<image style="overflow:visible;" width="88" height="76" xlink:href="4171B456D0F2D5D8.png"  transform="matrix(1 0 0 1 -105 51.07)">
	</image>
</g>
<path class="st4" d="M-40.8,51.6c0-11-8.9-19.9-19.9-19.9s-19.9,8.9-19.9,19.9c0,4.7,1.7,9.1,4.4,12.5l15.5,18.6L-45.2,64l0,0
	C-42.5,60.6-40.8,56.3-40.8,51.6z M-60.7,67.6c-8.8,0-16-7.2-16-16c0-8.8,7.2-16,16-16c8.8,0,16,7.2,16,16
	C-44.7,60.4-51.9,67.6-60.7,67.6z"/>
<linearGradient id="SVGID_3_" gradientUnits="userSpaceOnUse" x1="-80.646" y1="57.1377" x2="-40.8198" y2="57.1377">
	<stop  offset="0" style="stop-color:#FF0052;stop-opacity:0"/>
	<stop  offset="1" style="stop-color:#FF0052"/>
</linearGradient>
<path class="st5" d="M-40.8,51.6c0-11-8.9-19.9-19.9-19.9s-19.9,8.9-19.9,19.9c0,4.7,1.7,9.1,4.4,12.5l15.5,18.6L-45.2,64l0,0
	C-42.5,60.6-40.8,56.3-40.8,51.6z M-60.7,67.6c-8.8,0-16-7.2-16-16c0-8.8,7.2-16,16-16c8.8,0,16,7.2,16,16
	C-44.7,60.4-51.9,67.6-60.7,67.6z"/>
<g>
	<path class="st0" d="M121.5,37.7c8.8,0,16,7.2,16,16c0,8.8-7.2,16-16,16c-8.8,0-16-7.2-16-16C105.5,44.8,112.7,37.7,121.5,37.7z"/>
	<linearGradient id="SVGID_4_" gradientUnits="userSpaceOnUse" x1="115.1207" y1="59.2385" x2="127.8714" y2="71.9892">
		<stop  offset="0" style="stop-color:#6B50CC"/>
		<stop  offset="1" style="stop-color:#2700B5"/>
	</linearGradient>
	<path class="st6" d="M121.5,74.6L121.5,74.6c-5,0-9-4-9-9v0c0-5,4-9,9-9h0c5,0,9,4,9,9v0C130.5,70.6,126.5,74.6,121.5,74.6z"/>
	<linearGradient id="SVGID_5_" gradientUnits="userSpaceOnUse" x1="116.9958" y1="44.4074" x2="125.9963" y2="53.4078">
		<stop  offset="0" style="stop-color:#6B50CC"/>
		<stop  offset="1" style="stop-color:#2700B5"/>
	</linearGradient>
	<circle class="st7" cx="121.5" cy="48.9" r="6.4"/>
	<path class="st8" d="M141.3,53.7c0-11-8.9-19.9-19.9-19.9s-19.9,8.9-19.9,19.9c0,4.7,1.7,9.1,4.4,12.5l15.5,18.6l15.5-18.6l0,0
		C139.7,62.8,141.3,58.4,141.3,53.7z M121.4,69.7c-8.8,0-16-7.2-16-16c0-8.8,7.2-16,16-16c8.8,0,16,7.2,16,16
		C137.5,62.5,130.3,69.7,121.4,69.7z"/>
	<linearGradient id="SVGID_6_" gradientUnits="userSpaceOnUse" x1="136.2356" y1="69.9483" x2="106.6293" y2="40.342">
		<stop  offset="0" style="stop-color:#C00048"/>
		<stop  offset="1" style="stop-color:#FF0052;stop-opacity:0"/>
	</linearGradient>
	<path class="st9" d="M141.3,53.7c0-11-8.9-19.9-19.9-19.9s-19.9,8.9-19.9,19.9c0,4.7,1.7,9.1,4.4,12.5l15.5,18.6l15.5-18.6l0,0
		C139.7,62.8,141.3,58.4,141.3,53.7z M121.4,69.7c-8.8,0-16-7.2-16-16c0-8.8,7.2-16,16-16c8.8,0,16,7.2,16,16
		C137.5,62.5,130.3,69.7,121.4,69.7z"/>
</g>
<g>
	<path class="st0" d="M164.1,37.7c8.8,0,16,7.2,16,16c0,8.8-7.2,16-16,16c-8.8,0-16-7.2-16-16C148.1,44.8,155.2,37.7,164.1,37.7z"/>
	<path class="st10" d="M168.9,59.4v-1h1h4.8c0.6,0,1-0.5,1-1v-7.5c0-0.6-0.5-1-1-1h-4.8h-1v-1v-4.8c0-0.6-0.5-1-1-1h-7.5
		c-0.6,0-1,0.5-1,1v4.8v1h-1h-4.9c-0.6,0-1,0.5-1,1v7.5c0,0.6,0.5,1,1,1h4.9h1v1v4.9c0,0.6,0.5,1,1,1h7.5c0.6,0,1-0.5,1-1V59.4z"/>
	<linearGradient id="SVGID_7_" gradientUnits="userSpaceOnUse" x1="172.0081" y1="61.5645" x2="159.3575" y2="48.9139">
		<stop  offset="0" style="stop-color:#FF0052;stop-opacity:0"/>
		<stop  offset="1" style="stop-color:#FF0052"/>
	</linearGradient>
	<path class="st11" d="M174.7,48.9h-4.8h-1h-9.5v9.5v1v4.9c0,0.6,0.5,1,1,1h7.5c0.6,0,1-0.5,1-1v-4.9v-1h1h4.8c0.6,0,1-0.5,1-1v-7.5
		C175.7,49.3,175.2,48.9,174.7,48.9z"/>
	<g>
		<path class="st12" d="M184,53.7c0-11-8.9-19.9-19.9-19.9c-11,0-19.9,8.9-19.9,19.9c0,4.7,1.7,9.1,4.4,12.5l15.5,18.6l15.5-18.6
			l0,0C182.3,62.8,184,58.4,184,53.7z M164.1,69.7c-8.8,0-16-7.2-16-16c0-8.8,7.2-16,16-16c8.8,0,16,7.2,16,16
			C180.1,62.5,172.9,69.7,164.1,69.7z"/>
	</g>
	<linearGradient id="SVGID_8_" gradientUnits="userSpaceOnUse" x1="149.2855" y1="40.342" x2="178.8918" y2="69.9483">
		<stop  offset="0" style="stop-color:#2700B5;stop-opacity:0"/>
		<stop  offset="1" style="stop-color:#2700B5"/>
	</linearGradient>
	<path class="st13" d="M184,53.7c0-11-8.9-19.9-19.9-19.9s-19.9,8.9-19.9,19.9c0,4.7,1.7,9.1,4.4,12.5l15.5,18.6l15.5-18.6l0,0
		C182.3,62.8,184,58.4,184,53.7z M164.1,69.7c-8.8,0-16-7.2-16-16c0-8.8,7.2-16,16-16c8.8,0,16,7.2,16,16
		C180.1,62.5,172.9,69.7,164.1,69.7z"/>
</g>
<g>
	<path class="st0" d="M-60.7,35.5c8.8,0,16,7.2,16,16c0,8.8-7.2,16-16,16c-8.8,0-16-7.2-16-16C-76.8,42.7-69.6,35.5-60.7,35.5z"/>
	<path class="st10" d="M-55.9,57.3v-1h1h4.8c0.6,0,1-0.5,1-1v-7.5c0-0.6-0.5-1-1-1h-4.8h-1v-1V41c0-0.6-0.5-1-1-1h-7.5
		c-0.6,0-1,0.5-1,1v4.8v1h-1h-4.9c-0.6,0-1,0.5-1,1v7.5c0,0.6,0.5,1,1,1h4.9h1v1v4.9c0,0.6,0.5,1,1,1h7.5c0.6,0,1-0.5,1-1V57.3z"/>
	<linearGradient id="SVGID_9_" gradientUnits="userSpaceOnUse" x1="-52.8134" y1="59.4395" x2="-65.464" y2="46.7889">
		<stop  offset="0" style="stop-color:#FF0052;stop-opacity:0"/>
		<stop  offset="1" style="stop-color:#FF0052"/>
	</linearGradient>
	<path class="st14" d="M-50.1,46.8h-4.8h-1h-9.5v9.5v1v4.9c0,0.6,0.5,1,1,1h7.5c0.6,0,1-0.5,1-1v-4.9v-1h1h4.8c0.6,0,1-0.5,1-1v-7.5
		C-49.1,47.2-49.6,46.8-50.1,46.8z"/>
	<g>
		<linearGradient id="SVGID_10_" gradientUnits="userSpaceOnUse" x1="-70.686" y1="34.3193" x2="-47.2801" y2="74.8594">
			<stop  offset="0" style="stop-color:#7700D0"/>
			<stop  offset="1" style="stop-color:#2700B5"/>
		</linearGradient>
		<path class="st15" d="M-40.8,51.6c0-11-8.9-19.9-19.9-19.9c-11,0-19.9,8.9-19.9,19.9c0,4.7,1.7,9.1,4.4,12.5l15.5,18.6L-45.2,64
			l0,0C-42.5,60.6-40.8,56.3-40.8,51.6z M-60.7,67.6c-8.8,0-16-7.2-16-16c0-8.8,7.2-16,16-16c8.8,0,16,7.2,16,16
			C-44.7,60.4-51.9,67.6-60.7,67.6z"/>
	</g>
	<linearGradient id="SVGID_11_" gradientUnits="userSpaceOnUse" x1="-75.536" y1="38.217" x2="-45.9297" y2="67.8233">
		<stop  offset="0" style="stop-color:#2700B5;stop-opacity:0"/>
		<stop  offset="1" style="stop-color:#270070"/>
	</linearGradient>
	<path class="st16" d="M-40.8,51.6c0-11-8.9-19.9-19.9-19.9s-19.9,8.9-19.9,19.9c0,4.7,1.7,9.1,4.4,12.5l15.5,18.6L-45.2,64l0,0
		C-42.5,60.6-40.8,56.3-40.8,51.6z M-60.7,67.6c-8.8,0-16-7.2-16-16c0-8.8,7.2-16,16-16c8.8,0,16,7.2,16,16
		C-44.7,60.4-51.9,67.6-60.7,67.6z"/>
</g>
<path class="st0" d="M40.3,9.2c17.6,0,32,14.4,32,32c0,17.6-14.4,32-32,32c-17.6,0-32-14.4-32-32C8.2,23.5,22.6,9.2,40.3,9.2z"/>
<linearGradient id="SVGID_12_" gradientUnits="userSpaceOnUse" x1="25.2904" y1="49.6684" x2="55.9983" y2="80.3763">
	<stop  offset="0" style="stop-color:#006B8F"/>
	<stop  offset="1" style="stop-color:#14365A"/>
</linearGradient>
<path class="st17" d="M49.6,83h-18c-5,0-9-4-9-9V56c0-5,4-9,9-9h18c5,0,9,4,9,9v18C58.6,79,54.6,83,49.6,83z"/>
<linearGradient id="SVGID_13_" gradientUnits="userSpaceOnUse" x1="31.6625" y1="22.6975" x2="49.6261" y2="40.6611">
	<stop  offset="0" style="stop-color:#006B8F"/>
	<stop  offset="1" style="stop-color:#14365A"/>
</linearGradient>
<circle class="st18" cx="40.6" cy="31.7" r="12.7"/>
<g class="st3">
	
		<image style="overflow:visible;" width="106" height="79" xlink:href="4171B456D0F2D5DA.png"  transform="matrix(1 0 0 1 -13 77.07)">
	</image>
</g>
<path class="st4" d="M80,41.2C80,19.3,62.2,1.4,40.3,1.4S0.5,19.3,0.5,41.2c0,9.4,3.3,18.1,8.8,24.9l30.9,37.1l30.9-37.1l0,0
	C76.7,59.3,80,50.6,80,41.2z M40.3,73.2c-17.6,0-32-14.4-32-32c0-17.6,14.4-32,32-32c17.6,0,32,14.4,32,32
	C72.3,58.8,57.9,73.2,40.3,73.2z"/>
<linearGradient id="SVGID_14_" gradientUnits="userSpaceOnUse" x1="0.5129" y1="52.3094" x2="80" y2="52.3094">
	<stop  offset="0" style="stop-color:#FF0052;stop-opacity:0"/>
	<stop  offset="1" style="stop-color:#FF0052"/>
</linearGradient>
<path class="st19" d="M80,41.2C80,19.3,62.2,1.4,40.3,1.4S0.5,19.3,0.5,41.2c0,9.4,3.3,18.1,8.8,24.9l30.9,37.1l30.9-37.1l0,0
	C76.7,59.3,80,50.6,80,41.2z M40.3,73.2c-17.6,0-32-14.4-32-32c0-17.6,14.4-32,32-32c17.6,0,32,14.4,32,32
	C72.3,58.8,57.9,73.2,40.3,73.2z"/>
<g>
	<path class="st0" d="M40.3,9.2c17.6,0,32,14.4,32,32c0,17.6-14.4,32-32,32c-17.6,0-32-14.4-32-32C8.2,23.5,22.6,9.2,40.3,9.2z"/>
	<path class="st10" d="M49.8,52.6v-2h2h9.5c1.1,0,2-0.9,2-2V33.6c0-1.1-0.9-2-2-2h-9.5h-2v-2v-9.5c0-1.1-0.9-2-2-2H32.9
		c-1.1,0-2,0.9-2,2v9.5v2h-2h-9.7c-1.1,0-2,0.9-2,2v14.9c0,1.1,0.9,2,2,2h9.7h2v2v9.7c0,1.1,0.9,2,2,2h14.9c1.1,0,2-0.9,2-2V52.6z"
		/>
	<linearGradient id="SVGID_15_" gradientUnits="userSpaceOnUse" x1="56.0625" y1="56.9035" x2="30.8138" y2="31.6547">
		<stop  offset="0" style="stop-color:#FF0052;stop-opacity:0"/>
		<stop  offset="1" style="stop-color:#FF0052"/>
	</linearGradient>
	<path class="st20" d="M61.4,31.6h-9.5h-2h-19v19v2v9.7c0,1.1,0.9,2,2,2h14.9c1.1,0,2-0.9,2-2v-9.7v-2h2h9.5c1.1,0,2-0.9,2-2V33.6
		C63.4,32.5,62.5,31.6,61.4,31.6z"/>
	<g>
		<linearGradient id="SVGID_16_" gradientUnits="userSpaceOnUse" x1="20.3916" y1="6.7674" x2="67.1062" y2="87.6794">
			<stop  offset="0" style="stop-color:#7700D0"/>
			<stop  offset="1" style="stop-color:#2700B5"/>
		</linearGradient>
		<path class="st21" d="M80,41.2C80,19.3,62.2,1.4,40.3,1.4C18.3,1.4,0.5,19.3,0.5,41.2c0,9.4,3.3,18.1,8.8,24.9l30.9,37.1
			l30.9-37.1l0,0C76.7,59.3,80,50.6,80,41.2z M40.3,73.2c-17.6,0-32-14.4-32-32c0-17.6,14.4-32,32-32c17.6,0,32,14.4,32,32
			C72.3,58.8,57.9,73.2,40.3,73.2z"/>
	</g>
	<linearGradient id="SVGID_17_" gradientUnits="userSpaceOnUse" x1="10.7116" y1="14.5466" x2="69.8013" y2="73.6363">
		<stop  offset="0" style="stop-color:#2700B5;stop-opacity:0"/>
		<stop  offset="1" style="stop-color:#270070"/>
	</linearGradient>
	<path class="st22" d="M80,41.2C80,19.3,62.2,1.4,40.3,1.4S0.5,19.3,0.5,41.2c0,9.4,3.3,18.1,8.8,24.9l30.9,37.1l30.9-37.1l0,0
		C76.7,59.3,80,50.6,80,41.2z M40.3,73.2c-17.6,0-32-14.4-32-32c0-17.6,14.4-32,32-32c17.6,0,32,14.4,32,32
		C72.3,58.8,57.9,73.2,40.3,73.2z"/>
</g>
<g>
	<path class="st0" d="M40.3,9.2c17.6,0,32,14.4,32,32c0,17.6-14.4,32-32,32c-17.6,0-32-14.4-32-32C8.2,23.5,22.6,9.2,40.3,9.2z"/>
	<path class="st10" d="M49.8,52.6v-2h2h9.5c1.1,0,2-0.9,2-2V33.6c0-1.1-0.9-2-2-2h-9.5h-2v-2v-9.5c0-1.1-0.9-2-2-2H32.9
		c-1.1,0-2,0.9-2,2v9.5v2h-2h-9.7c-1.1,0-2,0.9-2,2v14.9c0,1.1,0.9,2,2,2h9.7h2v2v9.7c0,1.1,0.9,2,2,2h14.9c1.1,0,2-0.9,2-2V52.6z"
		/>
	<linearGradient id="SVGID_18_" gradientUnits="userSpaceOnUse" x1="56.0625" y1="56.9036" x2="30.8139" y2="31.655">
		<stop  offset="0" style="stop-color:#FF0052;stop-opacity:0"/>
		<stop  offset="1" style="stop-color:#FF0052"/>
	</linearGradient>
	<path class="st23" d="M61.4,31.6h-9.5h-2h-19v19v2v9.7c0,1.1,0.9,2,2,2h14.9c1.1,0,2-0.9,2-2v-9.7v-2h2h9.5c1.1,0,2-0.9,2-2V33.6
		C63.4,32.5,62.5,31.6,61.4,31.6z"/>
	<g>
		<linearGradient id="SVGID_19_" gradientUnits="userSpaceOnUse" x1="20.3917" y1="6.7676" x2="67.1061" y2="87.6794">
			<stop  offset="0" style="stop-color:#3600B5"/>
			<stop  offset="1" style="stop-color:#FF0052"/>
		</linearGradient>
		<path class="st24" d="M80,41.2C80,19.3,62.2,1.4,40.3,1.4C18.3,1.4,0.5,19.3,0.5,41.2c0,9.4,3.3,18.1,8.8,24.9l30.9,37.1
			l30.9-37.1l0,0C76.7,59.3,80,50.6,80,41.2z M40.3,73.2c-17.6,0-32-14.4-32-32c0-17.6,14.4-32,32-32c17.6,0,32,14.4,32,32
			C72.3,58.8,57.9,73.2,40.3,73.2z"/>
	</g>
	<linearGradient id="SVGID_20_" gradientUnits="userSpaceOnUse" x1="10.7117" y1="14.5469" x2="69.8012" y2="73.6364">
		<stop  offset="0" style="stop-color:#2700BE;stop-opacity:0"/>
		<stop  offset="1" style="stop-color:#3600B5"/>
	</linearGradient>
	<path class="st25" d="M80,41.2C80,19.3,62.2,1.4,40.3,1.4S0.5,19.3,0.5,41.2c0,9.4,3.3,18.1,8.8,24.9l30.9,37.1l30.9-37.1l0,0
		C76.7,59.3,80,50.6,80,41.2z M40.3,73.2c-17.6,0-32-14.4-32-32c0-17.6,14.4-32,32-32c17.6,0,32,14.4,32,32
		C72.3,58.8,57.9,73.2,40.3,73.2z"/>
</g>
<g>
	<path class="st0" d="M40.3,9.2c17.6,0,32,14.4,32,32c0,17.6-14.4,32-32,32c-17.6,0-32-14.4-32-32C8.2,23.5,22.6,9.2,40.3,9.2z"/>
	<path class="st10" d="M49.8,52.6v-2h2h9.5c1.1,0,2-0.9,2-2V33.6c0-1.1-0.9-2-2-2h-9.5h-2v-2v-9.5c0-1.1-0.9-2-2-2H32.9
		c-1.1,0-2,0.9-2,2v9.5v2h-2h-9.7c-1.1,0-2,0.9-2,2v14.9c0,1.1,0.9,2,2,2h9.7h2v2v9.7c0,1.1,0.9,2,2,2h14.9c1.1,0,2-0.9,2-2V52.6z"
		/>
	<linearGradient id="SVGID_21_" gradientUnits="userSpaceOnUse" x1="56.0626" y1="56.9035" x2="30.8139" y2="31.6548">
		<stop  offset="0" style="stop-color:#FF0052;stop-opacity:0"/>
		<stop  offset="1" style="stop-color:#FF0052"/>
	</linearGradient>
	<path class="st26" d="M61.4,31.6h-9.5h-2h-19v19v2v9.7c0,1.1,0.9,2,2,2h14.9c1.1,0,2-0.9,2-2v-9.7v-2h2h9.5c1.1,0,2-0.9,2-2V33.6
		C63.4,32.5,62.5,31.6,61.4,31.6z"/>
	<g>
		<linearGradient id="SVGID_22_" gradientUnits="userSpaceOnUse" x1="20.3917" y1="6.7674" x2="67.1062" y2="87.6794">
			<stop  offset="0" style="stop-color:#3600B5"/>
			<stop  offset="1" style="stop-color:#FF0052"/>
		</linearGradient>
		<path class="st27" d="M80,41.2C80,19.3,62.2,1.4,40.3,1.4C18.3,1.4,0.5,19.3,0.5,41.2c0,9.4,3.3,18.1,8.8,24.9l30.9,37.1
			l30.9-37.1l0,0C76.7,59.3,80,50.6,80,41.2z M40.3,73.2c-17.6,0-32-14.4-32-32c0-17.6,14.4-32,32-32c17.6,0,32,14.4,32,32
			C72.3,58.8,57.9,73.2,40.3,73.2z"/>
	</g>
	<linearGradient id="SVGID_23_" gradientUnits="userSpaceOnUse" x1="10.7116" y1="14.5467" x2="69.8013" y2="73.6363">
		<stop  offset="0" style="stop-color:#2700BE;stop-opacity:0"/>
		<stop  offset="1" style="stop-color:#290070"/>
	</linearGradient>
	<path class="st28" d="M80,41.2C80,19.3,62.2,1.4,40.3,1.4S0.5,19.3,0.5,41.2c0,9.4,3.3,18.1,8.8,24.9l30.9,37.1l30.9-37.1l0,0
		C76.7,59.3,80,50.6,80,41.2z M40.3,73.2c-17.6,0-32-14.4-32-32c0-17.6,14.4-32,32-32c17.6,0,32,14.4,32,32
		C72.3,58.8,57.9,73.2,40.3,73.2z"/>
</g>
</svg>
