<svg id="Layer_1" data-name="Layer 1" xmlns="http://www.w3.org/2000/svg" xmlns:xlink="http://www.w3.org/1999/xlink" viewBox="0 0 262 82.9"><defs><style>.cls-1{fill:url(#linear-gradient);}.cls-2{fill:#fff;}</style><linearGradient id="linear-gradient" y1="40.55" x2="262" y2="40.55" gradientTransform="matrix(1, 0, 0, -1, 0, 82)" gradientUnits="userSpaceOnUse"><stop offset="0" stop-color="#d40052"/><stop offset="1" stop-color="#ff0052"/></linearGradient></defs><title>dnm-logo-bar-red</title><path class="cls-1" d="M0,0V63.6A19.31,19.31,0,0,0,19.3,82.9H242.7A19.31,19.31,0,0,0,262,63.6V0Z"/><path class="cls-2" d="M45.2,34.1a5.3,5.3,0,0,1,2.9,2.2,7.67,7.67,0,0,1,1.2,2.8,14.07,14.07,0,0,1,.3,2.8,11.58,11.58,0,0,1-1.4,5.8,6.13,6.13,0,0,1-5.7,3.2H35.1V33.7h7.4A15.62,15.62,0,0,1,45.2,34.1Zm-6.5,2.6V47.9H42a3.43,3.43,0,0,0,3.5-2.5,8.19,8.19,0,0,0,.5-3.3,8.56,8.56,0,0,0-.8-4c-.5-.9-1.6-1.4-3.3-1.4Z"/><path class="cls-2" d="M62.6,49.3a6,6,0,0,1-4.9,2,6,6,0,0,1-4.9-2,7.14,7.14,0,0,1-1.6-4.8,7.06,7.06,0,0,1,1.6-4.7,6,6,0,0,1,4.9-2,6,6,0,0,1,4.9,2,7.06,7.06,0,0,1,1.6,4.7A7.14,7.14,0,0,1,62.6,49.3ZM60,47.5a5.66,5.66,0,0,0,0-5.8,2.57,2.57,0,0,0-2.2-1,2.46,2.46,0,0,0-2.2,1,5.66,5.66,0,0,0,0,5.8,2.92,2.92,0,0,0,4.4,0Z"/><path class="cls-2" d="M74.1,42.7a3,3,0,0,0-.5-1.3,2,2,0,0,0-1.7-.8,2.34,2.34,0,0,0-2.3,1.7,7.55,7.55,0,0,0-.3,2.3,6.46,6.46,0,0,0,.3,2.2,2.14,2.14,0,0,0,2.2,1.6,2.2,2.2,0,0,0,1.7-.6,3.82,3.82,0,0,0,.6-1.6h3.4a5.48,5.48,0,0,1-1.1,2.9,5.42,5.42,0,0,1-4.6,2.2,5.52,5.52,0,0,1-4.5-1.8,7.12,7.12,0,0,1-1.4-4.7,7.26,7.26,0,0,1,1.6-5.1,5.58,5.58,0,0,1,4.4-1.8A6.67,6.67,0,0,1,75.8,39a5.1,5.1,0,0,1,1.8,3.8H74.1Z"/><path class="cls-2" d="M78.5,40.7V38.3h1.8V34.8h3.3v3.5h2.1v2.4H83.6v6.7a2.15,2.15,0,0,0,.2,1,2.23,2.23,0,0,0,1.2.2h.6V51H84a4,4,0,0,1-3.2-.8,2.44,2.44,0,0,1-.6-1.8V40.6H78.5Z"/><path class="cls-2" d="M98.2,49.3a7,7,0,0,1-9.8,0,7.14,7.14,0,0,1-1.6-4.8,7.06,7.06,0,0,1,1.6-4.7,7,7,0,0,1,9.8,0,7.06,7.06,0,0,1,1.6,4.7A7.14,7.14,0,0,1,98.2,49.3Zm-2.6-1.8a5.66,5.66,0,0,0,0-5.8,2.57,2.57,0,0,0-2.2-1,2.46,2.46,0,0,0-2.2,1,5.66,5.66,0,0,0,0,5.8,2.92,2.92,0,0,0,4.4,0Z"/><path class="cls-2" d="M109.2,37.9h.3v3.4h-1a2.79,2.79,0,0,0-2.7,1.3,4.32,4.32,0,0,0-.4,2.2v6h-3.3V38.2h3.2v2.2a10.22,10.22,0,0,1,1.3-1.7,3.65,3.65,0,0,1,2.4-.8Z"/><path class="cls-2" d="M114,46.8a2.23,2.23,0,0,0,.5,1.3,3.3,3.3,0,0,0,2.3.7,3.51,3.51,0,0,0,1.6-.3,1,1,0,0,0,.6-.9.79.79,0,0,0-.5-.8,21.68,21.68,0,0,0-3.5-1,8.55,8.55,0,0,1-3-1.3,2.87,2.87,0,0,1-.9-2.3,3.89,3.89,0,0,1,1.4-3,5.71,5.71,0,0,1,3.9-1.3,7.51,7.51,0,0,1,3.9.9,3.86,3.86,0,0,1,1.7,3.3h-3.3a1.53,1.53,0,0,0-.4-1,2.56,2.56,0,0,0-1.9-.7,2.81,2.81,0,0,0-1.5.3,1,1,0,0,0-.5.8.79.79,0,0,0,.5.8,16.66,16.66,0,0,0,3.5.9,7,7,0,0,1,3,1.4,3.31,3.31,0,0,1,1,2.4,4,4,0,0,1-1.4,3.1,6.49,6.49,0,0,1-4.3,1.2c-2,0-3.5-.4-4.4-1.3a4.16,4.16,0,0,1-1.4-3.2Z"/><path class="cls-2" d="M131.4,33.7h3.7l6.8,11.9V33.7h3.3V50.8h-3.6l-7-12.1V50.8h-3.3V33.7Z"/><path class="cls-2" d="M156.6,38.5a5,5,0,0,1,2.2,1.9,5.89,5.89,0,0,1,1,2.6,17,17,0,0,1,.1,2.5h-9.2a3.22,3.22,0,0,0,1.3,2.7,3.45,3.45,0,0,0,1.8.5,2.44,2.44,0,0,0,1.8-.6,2.18,2.18,0,0,0,.7-.9h3.4a4.66,4.66,0,0,1-1.2,2.3,6.19,6.19,0,0,1-4.8,1.8,6.72,6.72,0,0,1-4.5-1.6c-1.3-1-1.9-2.7-1.9-5.1a6.86,6.86,0,0,1,1.7-5,6.34,6.34,0,0,1,4.5-1.8A9.43,9.43,0,0,1,156.6,38.5Zm-4.9,2.8a3.12,3.12,0,0,0-.9,2h5.7a3.12,3.12,0,0,0-.9-2,2.72,2.72,0,0,0-2-.7A2.35,2.35,0,0,0,151.7,41.3Z"/><path class="cls-2" d="M166.6,43.2a6.3,6.3,0,0,0,1.3-.3.93.93,0,0,0,.7-.9,1.29,1.29,0,0,0-.5-1.1,3.51,3.51,0,0,0-1.6-.3,2.06,2.06,0,0,0-1.7.6,3.34,3.34,0,0,0-.5,1.2h-3.2a5.41,5.41,0,0,1,.9-2.7,5.52,5.52,0,0,1,4.5-1.7,8.74,8.74,0,0,1,3.7.8,3.08,3.08,0,0,1,1.6,3.1v7.3a2,2,0,0,0,.2.9,1,1,0,0,0,.5.4V51H169a2.54,2.54,0,0,1-.2-.7c0-.2-.1-.5-.1-.8a10.1,10.1,0,0,1-1.6,1.3,4.75,4.75,0,0,1-2.4.6,3.71,3.71,0,0,1-2.8-1,3.42,3.42,0,0,1-1.1-2.8,3.6,3.6,0,0,1,1.8-3.4,8.48,8.48,0,0,1,2.9-.8Zm2,1.5-.6.3a2,2,0,0,1-.9.2l-.8.1a3.71,3.71,0,0,0-1.5.5,1.6,1.6,0,0,0-.8,1.4,1.36,1.36,0,0,0,.5,1.2,1.59,1.59,0,0,0,1.2.4,3.61,3.61,0,0,0,2-.6,2.61,2.61,0,0,0,.9-2.3V44.7Z"/><path class="cls-2" d="M181.8,37.9h.3v3.4h-1a2.79,2.79,0,0,0-2.7,1.3,4.32,4.32,0,0,0-.4,2.2v6h-3.3V38.2h3.2v2.2a10.22,10.22,0,0,1,1.3-1.7,3.65,3.65,0,0,1,2.4-.8Z"/><path class="cls-2" d="M202.2,33.7h5.1V50.8H204V36.5l-3.2,14.3h-3.5l-3.2-14.3V50.9h-3.3V33.7H196l3.1,13.4Z"/><path class="cls-2" d="M218.6,38.5a5,5,0,0,1,2.2,1.9,5.89,5.89,0,0,1,1,2.6,17,17,0,0,1,.1,2.5h-9.2a3.22,3.22,0,0,0,1.3,2.7,3.45,3.45,0,0,0,1.8.5,2.44,2.44,0,0,0,1.8-.6,2.18,2.18,0,0,0,.7-.9h3.4a4.66,4.66,0,0,1-1.2,2.3,6.19,6.19,0,0,1-4.8,1.8,6.72,6.72,0,0,1-4.5-1.6c-1.3-1-1.9-2.7-1.9-5.1a6.86,6.86,0,0,1,1.7-5,6.34,6.34,0,0,1,4.5-1.8A8.86,8.86,0,0,1,218.6,38.5Zm-4.9,2.8a3.12,3.12,0,0,0-.9,2h5.7a3.12,3.12,0,0,0-.9-2,2.72,2.72,0,0,0-2-.7A2.49,2.49,0,0,0,213.7,41.3Z"/></svg>