<?xml version="1.0" encoding="utf-8"?>
<!-- Generator: Adobe Illustrator 23.0.2, SVG Export Plug-In . SVG Version: 6.00 Build 0)  -->
<svg version="1.1" id="Layer_1" xmlns="http://www.w3.org/2000/svg" xmlns:xlink="http://www.w3.org/1999/xlink" x="0px" y="0px"
	 viewBox="0 0 40 61.7" style="enable-background:new 0 0 40 61.7;" xml:space="preserve">
<style type="text/css">
	.st0{fill:#FFFFFF;}
	.st1{fill:url(#SVGID_1_);}
	.st2{fill:url(#SVGID_2_);}
	.st3{opacity:0.33;}
	.st4{fill:#C40048;}
	.st5{fill:url(#SVGID_3_);}
</style>
<path class="st0" d="M20.1,4.4c8.8,0,16,7.2,16,16c0,8.8-7.2,16-16,16c-8.8,0-16-7.2-16-16C4.1,11.6,11.2,4.4,20.1,4.4z"/>
<linearGradient id="SVGID_1_" gradientUnits="userSpaceOnUse" x1="13.9059" y1="25.9914" x2="26.6566" y2="38.742">
	<stop  offset="0" style="stop-color:#006B8F"/>
	<stop  offset="1" style="stop-color:#14365A"/>
</linearGradient>
<path class="st1" d="M20.3,41.4L20.3,41.4c-5,0-9-4-9-9v0c0-5,4-9,9-9h0c5,0,9,4,9,9v0C29.3,37.3,25.3,41.4,20.3,41.4z"/>
<linearGradient id="SVGID_2_" gradientUnits="userSpaceOnUse" x1="15.781" y1="11.1602" x2="24.7815" y2="20.1607">
	<stop  offset="0" style="stop-color:#006B8F"/>
	<stop  offset="1" style="stop-color:#14365A"/>
</linearGradient>
<circle class="st2" cx="20.3" cy="15.7" r="6.4"/>
<g class="st3">
	
		<image style="overflow:visible;" width="88" height="76" xlink:href="4171B456D0F2D5DE.png"  transform="matrix(1 0 0 1 -24.1802 18.9293)">
	</image>
</g>
<path class="st4" d="M40,20.4c0-11-8.9-19.9-19.9-19.9S0.2,9.4,0.2,20.4c0,4.7,1.7,9.1,4.4,12.5l15.5,18.6l15.5-18.6l0,0
	C38.3,29.5,40,25.1,40,20.4z M20.1,36.5c-8.8,0-16-7.2-16-16c0-8.8,7.2-16,16-16c8.8,0,16,7.2,16,16C36.1,29.3,28.9,36.5,20.1,36.5z
	"/>
<linearGradient id="SVGID_3_" gradientUnits="userSpaceOnUse" x1="0.1738" y1="25.9969" x2="40" y2="25.9969">
	<stop  offset="0" style="stop-color:#FF0052;stop-opacity:0"/>
	<stop  offset="1" style="stop-color:#FF0052"/>
</linearGradient>
<path class="st5" d="M40,20.4c0-11-8.9-19.9-19.9-19.9S0.2,9.4,0.2,20.4c0,4.7,1.7,9.1,4.4,12.5l15.5,18.6l15.5-18.6l0,0
	C38.3,29.5,40,25.1,40,20.4z M20.1,36.5c-8.8,0-16-7.2-16-16c0-8.8,7.2-16,16-16c8.8,0,16,7.2,16,16C36.1,29.3,28.9,36.5,20.1,36.5z
	"/>
</svg>
