<?xml version="1.0" encoding="utf-8"?>
<!-- Generator: Adobe Illustrator 23.0.2, SVG Export Plug-In . SVG Version: 6.00 Build 0)  -->
<svg version="1.1" id="Layer_1" xmlns="http://www.w3.org/2000/svg" xmlns:xlink="http://www.w3.org/1999/xlink" x="0px" y="0px"
	 viewBox="0 0 40 61.7" style="enable-background:new 0 0 40 61.7;" xml:space="preserve">
<style type="text/css">
	.st0{fill:#FFFFFF;}
	.st1{fill:#C40048;}
	.st2{fill:url(#SVGID_1_);}
	.st3{opacity:0.19;}
	.st4{fill:url(#SVGID_2_);}
</style>
<path class="st0" d="M20,3.9c8.8,0,16,7.2,16,16c0,8.8-7.2,16-16,16c-8.8,0-16-7.2-16-16C4,11,11.2,3.9,20,3.9z"/>
<path class="st1" d="M24.8,25.6v-1h1h4.8c0.6,0,1-0.4,1-1v-7.5c0-0.6-0.4-1-1-1h-4.8h-1v-1V9.3c0-0.6-0.4-1-1-1h-7.5
	c-0.6,0-1,0.4-1,1v4.8v1h-1H9.5c-0.6,0-1,0.4-1,1v7.5c0,0.6,0.4,1,1,1h4.9h1v1v4.9c0,0.6,0.4,1,1,1h7.5c0.6,0,1-0.4,1-1V25.6z"/>
<linearGradient id="SVGID_1_" gradientUnits="userSpaceOnUse" x1="27.902" y1="34.0087" x2="15.2979" y2="46.6128" gradientTransform="matrix(1 0 0 -1 0 61.7021)">
	<stop  offset="0" style="stop-color:#FF0052;stop-opacity:0"/>
	<stop  offset="1" style="stop-color:#FF0052"/>
</linearGradient>
<path class="st2" d="M30.6,15.1h-4.8h-1h-9.5v9.5v1v4.9c0,0.6,0.4,1,1,1h7.5c0.6,0,1-0.4,1-1v-4.8v-1h1h4.8c0.6,0,1-0.4,1-1v-7.5
	C31.6,15.5,31.1,15.1,30.6,15.1z"/>
<g class="st3">
	
		<image style="overflow:visible;enable-background:new    ;" width="149" height="87" xlink:href="AEF469E20283EFEF.png"  transform="matrix(0.2643 0 0 0.2643 0.124 46.0343)">
	</image>
</g>
<linearGradient id="SVGID_2_" gradientUnits="userSpaceOnUse" x1="5.2681" y1="55.1506" x2="34.7846" y2="25.6342" gradientTransform="matrix(1 0 0 -1 0 61.7021)">
	<stop  offset="0" style="stop-color:#006B8F"/>
	<stop  offset="1" style="stop-color:#14365A"/>
</linearGradient>
<path class="st4" d="M39.9,19.8C39.9,8.9,31,0,20,0S0.2,8.9,0.2,19.8c0,4.7,1.6,9,4.4,12.4L20,50.8l15.5-18.5l0,0
	C38.2,28.9,39.9,24.6,39.9,19.8z M20,35.8c-8.8,0-16-7.2-16-16c0-8.8,7.2-16,16-16c8.8,0,16,7.2,16,16C36,28.7,28.8,35.8,20,35.8z"
	/>
</svg>
