<?xml version="1.0" encoding="utf-8"?>
<!-- Generator: Adobe Illustrator 23.0.2, SVG Export Plug-In . SVG Version: 6.00 Build 0)  -->
<svg version="1.1" id="Layer_1" xmlns="http://www.w3.org/2000/svg" xmlns:xlink="http://www.w3.org/1999/xlink" x="0px" y="0px"
	 viewBox="0 0 80 126" style="enable-background:new 0 0 80 126;" xml:space="preserve">
<style type="text/css">
	.st0{fill:#FFFFFF;}
	.st1{fill:url(#SVGID_1_);}
	.st2{fill:url(#SVGID_2_);}
	.st3{opacity:0.33;}
	.st4{fill:#C40048;}
	.st5{fill:url(#SVGID_3_);}
	.st6{fill:url(#SVGID_4_);}
	.st7{fill:url(#SVGID_5_);}
	.st8{fill:#FF0052;}
	.st9{fill:url(#SVGID_6_);}
	.st10{fill:url(#SVGID_7_);}
	.st11{opacity:0.25;}
	.st12{fill:#C00048;}
	.st13{fill:url(#SVGID_8_);}
	.st14{fill:#6B50CC;}
	.st15{fill:url(#SVGID_9_);}
	.st16{fill:url(#SVGID_10_);}
	.st17{fill:url(#SVGID_11_);}
	.st18{fill:url(#SVGID_12_);}
	.st19{fill:url(#SVGID_13_);}
	.st20{fill:url(#SVGID_14_);}
	.st21{fill:url(#SVGID_15_);}
	.st22{fill:url(#SVGID_16_);}
	.st23{fill:url(#SVGID_17_);}
	.st24{fill:url(#SVGID_18_);}
</style>
<path class="st0" d="M-60.7,34.5c9.9,0,17.9,8,17.9,17.9c0,9.9-8,17.9-17.9,17.9c-9.9,0-17.9-8-17.9-17.9
	C-78.6,42.6-70.6,34.5-60.7,34.5z"/>
<linearGradient id="SVGID_1_" gradientUnits="userSpaceOnUse" x1="-67.9342" y1="58.3502" x2="-53.0979" y2="73.1865">
	<stop  offset="0" style="stop-color:#006B8F"/>
	<stop  offset="1" style="stop-color:#14365A"/>
</linearGradient>
<path class="st1" d="M-59.5,75.8h-2.1c-5,0-9-4-9-9v-2.1c0-5,4-9,9-9h2.1c5,0,9,4,9,9v2.1C-50.5,71.8-54.5,75.8-59.5,75.8z"/>
<linearGradient id="SVGID_2_" gradientUnits="userSpaceOnUse" x1="-65.5368" y1="42.1091" x2="-55.4953" y2="52.1506">
	<stop  offset="0" style="stop-color:#006B8F"/>
	<stop  offset="1" style="stop-color:#14365A"/>
</linearGradient>
<circle class="st2" cx="-60.5" cy="47.1" r="7.1"/>
<g class="st3">
	
		<image style="overflow:visible;" width="90" height="77" xlink:href="4171B456D0F2D5DC.png"  transform="matrix(1 0 0 1 -106 56.07)">
	</image>
</g>
<path class="st4" d="M-38.5,52.4c0-12.3-10-22.2-22.2-22.2s-22.2,10-22.2,22.2c0,5.3,1.8,10.1,4.9,13.9l17.3,20.7l17.3-20.7l0,0
	C-40.4,62.6-38.5,57.7-38.5,52.4z M-60.7,70.3c-9.9,0-17.9-8-17.9-17.9c0-9.9,8-17.9,17.9-17.9c9.9,0,17.9,8,17.9,17.9
	C-42.8,62.3-50.9,70.3-60.7,70.3z"/>
<linearGradient id="SVGID_3_" gradientUnits="userSpaceOnUse" x1="-82.9492" y1="58.6619" x2="-38.5165" y2="58.6619">
	<stop  offset="0" style="stop-color:#FF0052;stop-opacity:0"/>
	<stop  offset="1" style="stop-color:#FF0052"/>
</linearGradient>
<path class="st5" d="M-38.5,52.4c0-12.3-10-22.2-22.2-22.2s-22.2,10-22.2,22.2c0,5.3,1.8,10.1,4.9,13.9l17.3,20.7l17.3-20.7l0,0
	C-40.4,62.6-38.5,57.7-38.5,52.4z M-60.7,70.3c-9.9,0-17.9-8-17.9-17.9c0-9.9,8-17.9,17.9-17.9c9.9,0,17.9,8,17.9,17.9
	C-42.8,62.3-50.9,70.3-60.7,70.3z"/>
<g>
	<path class="st0" d="M121.5,37.7c8.8,0,16,7.2,16,16c0,8.8-7.2,16-16,16c-8.8,0-16-7.2-16-16C105.5,44.8,112.7,37.7,121.5,37.7z"/>
	<linearGradient id="SVGID_4_" gradientUnits="userSpaceOnUse" x1="115.1207" y1="59.2385" x2="127.8714" y2="71.9892">
		<stop  offset="0" style="stop-color:#6B00CC"/>
		<stop  offset="1" style="stop-color:#2700B5"/>
	</linearGradient>
	<path class="st6" d="M121.5,74.6L121.5,74.6c-5,0-9-4-9-9v0c0-5,4-9,9-9h0c5,0,9,4,9,9v0C130.5,70.6,126.5,74.6,121.5,74.6z"/>
	<linearGradient id="SVGID_5_" gradientUnits="userSpaceOnUse" x1="116.9958" y1="44.4074" x2="125.9963" y2="53.4078">
		<stop  offset="0" style="stop-color:#6B00CC"/>
		<stop  offset="1" style="stop-color:#2700B5"/>
	</linearGradient>
	<circle class="st7" cx="121.5" cy="48.9" r="6.4"/>
	<path class="st8" d="M141.3,53.7c0-11-8.9-19.9-19.9-19.9s-19.9,8.9-19.9,19.9c0,4.7,1.7,9.1,4.4,12.5l15.5,18.6l15.5-18.6l0,0
		C139.7,62.8,141.3,58.4,141.3,53.7z M121.4,69.7c-8.8,0-16-7.2-16-16c0-8.8,7.2-16,16-16c8.8,0,16,7.2,16,16
		C137.5,62.5,130.3,69.7,121.4,69.7z"/>
	<linearGradient id="SVGID_6_" gradientUnits="userSpaceOnUse" x1="136.2356" y1="69.9483" x2="106.6293" y2="40.342">
		<stop  offset="0" style="stop-color:#C00048"/>
		<stop  offset="1" style="stop-color:#FF0052;stop-opacity:0"/>
	</linearGradient>
	<path class="st9" d="M141.3,53.7c0-11-8.9-19.9-19.9-19.9s-19.9,8.9-19.9,19.9c0,4.7,1.7,9.1,4.4,12.5l15.5,18.6l15.5-18.6l0,0
		C139.7,62.8,141.3,58.4,141.3,53.7z M121.4,69.7c-8.8,0-16-7.2-16-16c0-8.8,7.2-16,16-16c8.8,0,16,7.2,16,16
		C137.5,62.5,130.3,69.7,121.4,69.7z"/>
</g>
<g>
	<path class="st0" d="M-60.7,34.5c9.9,0,17.9,8,17.9,17.9c0,9.9-8,17.9-17.9,17.9c-9.9,0-17.9-8-17.9-17.9
		C-78.6,42.6-70.5,34.5-60.7,34.5z"/>
	<path class="st8" d="M-38.5,52.4c0-12.3-10-22.2-22.2-22.2s-22.2,10-22.2,22.2c0,5.3,1.8,10.1,4.9,13.9l17.3,20.7l17.3-20.7l0,0
		C-40.4,62.6-38.5,57.7-38.5,52.4z M-60.7,70.3c-9.9,0-17.9-8-17.9-17.9c0-9.9,8-17.9,17.9-17.9c9.9,0,17.9,8,17.9,17.9
		C-42.8,62.3-50.9,70.3-60.7,70.3z"/>
	<linearGradient id="SVGID_7_" gradientUnits="userSpaceOnUse" x1="-44.2175" y1="70.5835" x2="-77.2482" y2="37.5528">
		<stop  offset="0" style="stop-color:#C00048"/>
		<stop  offset="1" style="stop-color:#FF0052;stop-opacity:0"/>
	</linearGradient>
	<path class="st10" d="M-38.5,52.4c0-12.3-10-22.2-22.2-22.2s-22.2,10-22.2,22.2c0,5.3,1.8,10.1,4.9,13.9l17.3,20.7l17.3-20.7l0,0
		C-40.4,62.6-38.5,57.7-38.5,52.4z M-60.7,70.3c-9.9,0-17.9-8-17.9-17.9c0-9.9,8-17.9,17.9-17.9c9.9,0,17.9,8,17.9,17.9
		C-42.8,62.3-50.9,70.3-60.7,70.3z"/>
</g>
<g class="st11">
	
		<image style="overflow:visible;" width="117" height="130" xlink:href="4171B456D0F2D5DD.png"  transform="matrix(1 0 0 1 -119 -5.93)">
	</image>
</g>
<g>
	<path class="st0" d="M164.1,37.7c8.8,0,16,7.2,16,16c0,8.8-7.2,16-16,16c-8.8,0-16-7.2-16-16C148.1,44.8,155.2,37.7,164.1,37.7z"/>
	<path class="st12" d="M168.9,59.4v-1h1h4.8c0.6,0,1-0.5,1-1v-7.5c0-0.6-0.5-1-1-1h-4.8h-1v-1v-4.8c0-0.6-0.5-1-1-1h-7.5
		c-0.6,0-1,0.5-1,1v4.8v1h-1h-4.9c-0.6,0-1,0.5-1,1v7.5c0,0.6,0.5,1,1,1h4.9h1v1v4.9c0,0.6,0.5,1,1,1h7.5c0.6,0,1-0.5,1-1V59.4z"/>
	<linearGradient id="SVGID_8_" gradientUnits="userSpaceOnUse" x1="172.0081" y1="61.5645" x2="159.3575" y2="48.9139">
		<stop  offset="0" style="stop-color:#FF0052;stop-opacity:0"/>
		<stop  offset="1" style="stop-color:#FF0052"/>
	</linearGradient>
	<path class="st13" d="M174.7,48.9h-4.8h-1h-9.5v9.5v1v4.9c0,0.6,0.5,1,1,1h7.5c0.6,0,1-0.5,1-1v-4.9v-1h1h4.8c0.6,0,1-0.5,1-1v-7.5
		C175.7,49.3,175.2,48.9,174.7,48.9z"/>
	<g>
		<path class="st14" d="M184,53.7c0-11-8.9-19.9-19.9-19.9c-11,0-19.9,8.9-19.9,19.9c0,4.7,1.7,9.1,4.4,12.5l15.5,18.6l15.5-18.6
			l0,0C182.3,62.8,184,58.4,184,53.7z M164.1,69.7c-8.8,0-16-7.2-16-16c0-8.8,7.2-16,16-16c8.8,0,16,7.2,16,16
			C180.1,62.5,172.9,69.7,164.1,69.7z"/>
	</g>
	<linearGradient id="SVGID_9_" gradientUnits="userSpaceOnUse" x1="149.2855" y1="40.342" x2="178.8918" y2="69.9483">
		<stop  offset="0" style="stop-color:#2700B5;stop-opacity:0"/>
		<stop  offset="1" style="stop-color:#2700B5"/>
	</linearGradient>
	<path class="st15" d="M184,53.7c0-11-8.9-19.9-19.9-19.9s-19.9,8.9-19.9,19.9c0,4.7,1.7,9.1,4.4,12.5l15.5,18.6l15.5-18.6l0,0
		C182.3,62.8,184,58.4,184,53.7z M164.1,69.7c-8.8,0-16-7.2-16-16c0-8.8,7.2-16,16-16c8.8,0,16,7.2,16,16
		C180.1,62.5,172.9,69.7,164.1,69.7z"/>
</g>
<path class="st0" d="M-60.7,34.5c9.9,0,17.9,8,17.9,17.9c0,9.9-8,17.9-17.9,17.9c-9.9,0-17.9-8-17.9-17.9
	C-78.6,42.6-70.6,34.5-60.7,34.5z"/>
<path class="st12" d="M-55.4,58.8v-1.1h1.1h5.3c0.6,0,1.1-0.5,1.1-1.1v-8.4c0-0.6-0.5-1.1-1.1-1.1h-5.3h-1.1V46v-5.3
	c0-0.6-0.5-1.1-1.1-1.1h-8.4c-0.6,0-1.1,0.5-1.1,1.1V46v1.1h-1.1h-5.4c-0.6,0-1.1,0.5-1.1,1.1v8.4c0,0.6,0.5,1.1,1.1,1.1h5.4h1.1
	v1.1v5.4c0,0.6,0.5,1.1,1.1,1.1h8.4c0.6,0,1.1-0.5,1.1-1.1V58.8z"/>
<linearGradient id="SVGID_10_" gradientUnits="userSpaceOnUse" x1="-51.8974" y1="61.23" x2="-66.0112" y2="47.1161">
	<stop  offset="0" style="stop-color:#FF0052;stop-opacity:0"/>
	<stop  offset="1" style="stop-color:#FF0052"/>
</linearGradient>
<path class="st16" d="M-48.9,47.1h-5.3h-1.1H-66v10.6v1.1v5.4c0,0.6,0.5,1.1,1.1,1.1h8.4c0.6,0,1.1-0.5,1.1-1.1v-5.4v-1.1h1.1h5.3
	c0.6,0,1.1-0.5,1.1-1.1v-8.4C-47.8,47.6-48.3,47.1-48.9,47.1z"/>
<g>
	<linearGradient id="SVGID_11_" gradientUnits="userSpaceOnUse" x1="-71.8372" y1="33.2043" x2="-45.7241" y2="78.4334">
		<stop  offset="0" style="stop-color:#7700D0"/>
		<stop  offset="1" style="stop-color:#2700B5"/>
	</linearGradient>
	<path class="st17" d="M-38.5,52.4c0-12.3-10-22.2-22.2-22.2c-12.3,0-22.2,10-22.2,22.2c0,5.3,1.8,10.1,4.9,13.9l17.3,20.7
		l17.3-20.7l0,0C-40.4,62.6-38.5,57.7-38.5,52.4z M-60.7,70.3c-9.9,0-17.9-8-17.9-17.9c0-9.9,8-17.9,17.9-17.9
		c9.9,0,17.9,8,17.9,17.9C-42.8,62.3-50.9,70.3-60.7,70.3z"/>
</g>
<linearGradient id="SVGID_12_" gradientUnits="userSpaceOnUse" x1="-77.2482" y1="37.5528" x2="-44.2176" y2="70.5835">
	<stop  offset="0" style="stop-color:#2700B5;stop-opacity:0"/>
	<stop  offset="1" style="stop-color:#270070"/>
</linearGradient>
<path class="st18" d="M-38.5,52.4c0-12.3-10-22.2-22.2-22.2s-22.2,10-22.2,22.2c0,5.3,1.8,10.1,4.9,13.9l17.3,20.7l17.3-20.7l0,0
	C-40.4,62.6-38.5,57.7-38.5,52.4z M-60.7,70.3c-9.9,0-17.9-8-17.9-17.9c0-9.9,8-17.9,17.9-17.9c9.9,0,17.9,8,17.9,17.9
	C-42.8,62.3-50.9,70.3-60.7,70.3z"/>
<path class="st0" d="M39.8,10.5c17.4,0,31.6,14.2,31.6,31.6c0,17.4-14.2,31.6-31.6,31.6c-17.4,0-31.6-14.2-31.6-31.6
	C8.2,24.7,22.3,10.5,39.8,10.5z"/>
<linearGradient id="SVGID_13_" gradientUnits="userSpaceOnUse" x1="25.0246" y1="50.5397" x2="55.3004" y2="80.8155">
	<stop  offset="0" style="stop-color:#006B8F"/>
	<stop  offset="1" style="stop-color:#14365A"/>
</linearGradient>
<path class="st19" d="M48.9,83.5H31.4c-5,0-9-4-9-9V56.9c0-5,4-9,9-9h17.5c5,0,9,4,9,9v17.5C57.9,79.4,53.9,83.5,48.9,83.5z"/>
<linearGradient id="SVGID_14_" gradientUnits="userSpaceOnUse" x1="31.2886" y1="23.8609" x2="49.0364" y2="41.6088">
	<stop  offset="0" style="stop-color:#006B8F"/>
	<stop  offset="1" style="stop-color:#14365A"/>
</linearGradient>
<circle class="st20" cx="40.2" cy="32.7" r="12.5"/>
<g class="st3">
	
		<image style="overflow:visible;" width="106" height="79" xlink:href="4171B456D0F2D5DB.png"  transform="matrix(1 0 0 1 -13 77.07)">
	</image>
</g>
<path class="st4" d="M79,42.1C79,20.5,61.4,2.9,39.8,2.9S0.5,20.5,0.5,42.1c0,9.3,3.3,17.9,8.7,24.6l30.6,36.6l30.6-36.6l0,0
	C75.8,60,79,51.4,79,42.1z M39.8,73.7c-17.4,0-31.6-14.2-31.6-31.6c0-17.4,14.2-31.6,31.6-31.6c17.4,0,31.6,14.2,31.6,31.6
	C71.4,59.6,57.2,73.7,39.8,73.7z"/>
<linearGradient id="SVGID_15_" gradientUnits="userSpaceOnUse" x1="0.5129" y1="53.1172" x2="79.0457" y2="53.1172">
	<stop  offset="0" style="stop-color:#FF0052;stop-opacity:0"/>
	<stop  offset="1" style="stop-color:#FF0052"/>
</linearGradient>
<path class="st21" d="M79,42.1C79,20.5,61.4,2.9,39.8,2.9S0.5,20.5,0.5,42.1c0,9.3,3.3,17.9,8.7,24.6l30.6,36.6l30.6-36.6l0,0
	C75.8,60,79,51.4,79,42.1z M39.8,73.7c-17.4,0-31.6-14.2-31.6-31.6c0-17.4,14.2-31.6,31.6-31.6c17.4,0,31.6,14.2,31.6,31.6
	C71.4,59.6,57.2,73.7,39.8,73.7z"/>
<g>
	<path class="st0" d="M39.8,10.5c17.4,0,31.6,14.2,31.6,31.6c0,17.4-14.2,31.6-31.6,31.6c-17.4,0-31.6-14.2-31.6-31.6
		C8.2,24.7,22.3,10.5,39.8,10.5z"/>
	<path class="st12" d="M49.2,53.4v-2h2h9.4c1.1,0,2-0.9,2-2V34.7c0-1.1-0.9-2-2-2h-9.4h-2v-2v-9.4c0-1.1-0.9-2-2-2H32.5
		c-1.1,0-2,0.9-2,2v9.4v2h-2h-9.6c-1.1,0-2,0.9-2,2v14.8c0,1.1,0.9,2,2,2h9.6h2v2V63c0,1.1,0.9,2,2,2h14.8c1.1,0,2-0.9,2-2V53.4z"/>
	<linearGradient id="SVGID_16_" gradientUnits="userSpaceOnUse" x1="55.3956" y1="57.6562" x2="30.4501" y2="32.7106">
		<stop  offset="0" style="stop-color:#FF0052;stop-opacity:0"/>
		<stop  offset="1" style="stop-color:#FF0052"/>
	</linearGradient>
	<path class="st22" d="M60.7,32.7h-9.4h-2H30.5v18.7v2V63c0,1.1,0.9,2,2,2h14.8c1.1,0,2-0.9,2-2v-9.6v-2h2h9.4c1.1,0,2-0.9,2-2V34.7
		C62.6,33.6,61.7,32.7,60.7,32.7z"/>
	<g>
		<linearGradient id="SVGID_17_" gradientUnits="userSpaceOnUse" x1="20.153" y1="8.122" x2="66.3067" y2="88.0626">
			<stop  offset="0" style="stop-color:#7700D0"/>
			<stop  offset="1" style="stop-color:#2700B5"/>
		</linearGradient>
		<path class="st23" d="M79,42.1C79,20.5,61.4,2.9,39.8,2.9C18.1,2.9,0.5,20.5,0.5,42.1c0,9.3,3.3,17.9,8.7,24.6l30.6,36.6
			l30.6-36.6l0,0C75.8,60,79,51.4,79,42.1z M39.8,73.7c-17.4,0-31.6-14.2-31.6-31.6c0-17.4,14.2-31.6,31.6-31.6
			c17.4,0,31.6,14.2,31.6,31.6C71.4,59.6,57.2,73.7,39.8,73.7z"/>
	</g>
	<linearGradient id="SVGID_18_" gradientUnits="userSpaceOnUse" x1="10.5891" y1="15.8078" x2="68.9694" y2="74.1881">
		<stop  offset="0" style="stop-color:#2700B5;stop-opacity:0"/>
		<stop  offset="1" style="stop-color:#270070"/>
	</linearGradient>
	<path class="st24" d="M79,42.1C79,20.5,61.4,2.9,39.8,2.9S0.5,20.5,0.5,42.1c0,9.3,3.3,17.9,8.7,24.6l30.6,36.6l30.6-36.6l0,0
		C75.8,60,79,51.4,79,42.1z M39.8,73.7c-17.4,0-31.6-14.2-31.6-31.6c0-17.4,14.2-31.6,31.6-31.6c17.4,0,31.6,14.2,31.6,31.6
		C71.4,59.6,57.2,73.7,39.8,73.7z"/>
</g>
</svg>
