<?xml version="1.0" encoding="utf-8"?>
<!-- Generator: Adobe Illustrator 23.0.2, SVG Export Plug-In . SVG Version: 6.00 Build 0)  -->
<svg version="1.1" id="Layer_1" xmlns="http://www.w3.org/2000/svg" xmlns:xlink="http://www.w3.org/1999/xlink" x="0px" y="0px"
	 viewBox="0 0 150.4 260.1" style="enable-background:new 0 0 150.4 260.1;" xml:space="preserve">
<style type="text/css">
	.st0{opacity:0.8;fill:#FFFFFF;}
	.st1{fill:#C40048;}
	.st2{fill:url(#SVGID_1_);}
	.st3{opacity:0.24;}
	.st4{fill:url(#SVGID_2_);}
</style>
<path class="st0" d="M75.3,40.6c33.3,0,60.5,27.1,60.5,60.5c0,33.3-27.1,60.5-60.5,60.5c-33.3,0-60.5-27.1-60.5-60.5
	C14.8,67.7,41.9,40.6,75.3,40.6z"/>
<path class="st1" d="M93.3,122.7v-3.8h3.8h18c2.1,0,3.8-1.7,3.8-3.8V86.8c0-2.1-1.7-3.8-3.8-3.8h-18h-3.8v-3.8v-18
	c0-2.1-1.7-3.8-3.8-3.8H61.3c-2.1,0-3.8,1.7-3.8,3.8v18V83h-3.8H35.3c-2.1,0-3.8,1.7-3.8,3.8V115c0,2.1,1.7,3.8,3.8,3.8h18.4h3.8
	v3.8V141c0,2.1,1.7,3.8,3.8,3.8h28.2c2.1,0,3.8-1.7,3.8-3.8V122.7z"/>
<linearGradient id="SVGID_1_" gradientUnits="userSpaceOnUse" x1="105.132" y1="130.7996" x2="57.4259" y2="83.0935">
	<stop  offset="0" style="stop-color:#FF0052;stop-opacity:0"/>
	<stop  offset="1" style="stop-color:#FF0052"/>
</linearGradient>
<path class="st2" d="M115.2,83h-18h-3.8H57.5v35.8v3.8V141c0,2.1,1.7,3.8,3.8,3.8h28.2c2.1,0,3.8-1.7,3.8-3.8v-18.4v-3.8h3.8h18
	c2.1,0,3.8-1.7,3.8-3.8V86.8C119,84.7,117.3,83,115.2,83z"/>
<g class="st3">
	
		<image style="overflow:visible;" width="149" height="87" xlink:href="4171B456D0F2D5D8.png"  transform="matrix(1 0 0 1 0 200.14)">
	</image>
</g>
<linearGradient id="SVGID_2_" gradientUnits="userSpaceOnUse" x1="19.4437" y1="50.7686" x2="131.0906" y2="162.4155">
	<stop  offset="0" style="stop-color:#006B8F"/>
	<stop  offset="1" style="stop-color:#14365A"/>
</linearGradient>
<path class="st4" d="M150.4,101.1c0-41.4-33.7-75.1-75.1-75.1S0.2,59.7,0.2,101.1c0,17.8,6.2,34.2,16.6,47.1l58.5,70.1l58.5-70.1
	l0,0C144.1,135.3,150.4,118.9,150.4,101.1z M75.3,161.6c-33.3,0-60.5-27.1-60.5-60.5c0-33.3,27.1-60.5,60.5-60.5
	c33.3,0,60.5,27.1,60.5,60.5C135.7,134.4,108.6,161.6,75.3,161.6z"/>
</svg>
